<svg viewBox="0 0 48 48" xml:space="preserve" xmlns="http://www.w3.org/2000/svg"><path d="M33 40H5c-1.654 0-3-1.346-3-3V19c0-1.654 1.346-3 3-3h28c1.654 0 3 1.346 3 3v18c0 1.654-1.346 3-3 3zM5 18c-.552 0-1 .449-1 1v18c0 .551.448 1 1 1h28c.552 0 1-.449 1-1V19c0-.551-.448-1-1-1H5z" fill="#ff5722" class="fill-000000"></path><path d="M12 33c-2.206 0-4-1.794-4-4s1.794-4 4-4 4 1.794 4 4-1.794 4-4 4zm0-6c-1.103 0-2 .897-2 2s.897 2 2 2 2-.897 2-2-.897-2-2-2zM26 33c-2.206 0-4-1.794-4-4s1.794-4 4-4 4 1.794 4 4-1.794 4-4 4zm0-6c-1.103 0-2 .897-2 2s.897 2 2 2 2-.897 2-2-.897-2-2-2z" fill="#ff5722" class="fill-000000"></path><path d="M26 27H12a1 1 0 1 1 0-2h14a1 1 0 1 1 0 2zM23 18a1 1 0 0 1-1-1v-4c0-.551-.448-1-1-1H1a1 1 0 1 1 0-2h20c1.654 0 3 1.346 3 3v4a1 1 0 0 1-1 1zM31 18a1 1 0 0 1-1-1v-6c0-1.654 1.346-3 3-3h4a1 1 0 1 1 0 2h-4c-.552 0-1 .449-1 1v6a1 1 0 0 1-1 1z" fill="#ff5722" class="fill-000000"></path><path d="M45 12h-6c-1.654 0-3-1.346-3-3s1.346-3 3-3h6c1.654 0 3 1.346 3 3s-1.346 3-3 3zm-6-4a1.001 1.001 0 0 0 0 2h6a1.001 1.001 0 0 0 0-2h-6zM45.923 37.462c-.27 0-.541-.053-.798-.16l-10.51-4.379a1 1 0 1 1 .77-1.846l10.509 4.379.106-.071v-12.77l-.491-.994.385.923-10.509 4.379a1 1 0 1 1-.77-1.846l10.509-4.379A2.076 2.076 0 0 1 48 22.615v12.77a2.077 2.077 0 0 1-2.077 2.077z" fill="#ff5722" class="fill-000000"></path></svg>