<svg viewBox="0 0 24 24" xmlns="http://www.w3.org/2000/svg"><g display="inline" stroke-width=".255706" stroke-miterlimit="4" stroke-dasharray="none"><path d="M.48 294.105V296.502h1.292v-.32l.005.001c.338.113.82.212 1.297.383l.036.012.035-.008c.15-.035.553-.16 1.035-.314.481-.155 1.03-.338 1.44-.479a.375.375 0 0 0 .228-.48.393.393 0 0 0-.481-.23c-.155.047-.884.272-1.363.413.005-.136.04-.284-.07-.37l-.006-.007-.008-.003c-.538-.32-.583-.362-1.34-.764l-.035-.018-.04.004c-.26.028-.701.101-.733.106v-.323zm.256.256h.781v1.885h-.78Zm1.758.22c.691.369.77.425 1.281.73.083.064.105.144.055.216a.13.13 0 0 1-.094.06.282.282 0 0 1-.154-.028 7.465 7.465 0 0 1-.61-.317l-.11-.062-.126.222.112.063c.256.143.39.218.629.328h.002c.097.043.2.064.3.047.042-.007.07-.05.108-.07l.004.01.122-.034c.48-.14 1.268-.385 1.428-.434v-.002c.06-.018.142.012.167.076a.112.112 0 0 1-.073.149c-.405.14-.954.322-1.434.476-.467.15-.863.27-.988.301-.48-.167-.957-.272-1.255-.37l-.086-.028v-1.227l.021-.003s.441-.071.701-.102z" style="line-height:normal;font-variant-ligatures:normal;font-variant-position:normal;font-variant-caps:normal;font-variant-numeric:normal;font-variant-alternates:normal;font-variant-east-asian:normal;font-feature-settings:normal;font-variation-settings:normal;text-indent:0;text-align:start;text-decoration-line:none;text-decoration-style:solid;text-decoration-color:#000;text-transform:none;text-orientation:mixed;white-space:normal;shape-padding:0;shape-margin:0;inline-size:0;isolation:auto;mix-blend-mode:normal;solid-color:#000;solid-opacity:1" transform="matrix(3.91082 0 0 3.91067 -.42 -1137.272)" color="#000000" font-style="normal" font-variant="normal" font-weight="400" font-stretch="normal" font-size="medium" font-family="sans-serif" text-decoration="none" letter-spacing="normal" word-spacing="normal" writing-mode="lr-tb" direction="ltr" dominant-baseline="auto" baseline-shift="baseline" text-anchor="start" clip-rule="nonzero" display="inline" overflow="visible" visibility="visible" color-interpolation="sRGB" color-interpolation-filters="linearRGB" vector-effect="none" fill="#ff5722" fill-opacity="1" fill-rule="nonzero" stroke="none" stroke-width=".255706" stroke-linecap="square" stroke-linejoin="miter" stroke-miterlimit="4" stroke-dasharray="none" stroke-dashoffset="0" stroke-opacity="1" paint-order="fill markers stroke" color-rendering="auto" image-rendering="auto" shape-rendering="auto" text-rendering="auto" enable-background="accumulate" stop-color="#ff5722" class="fill-000000 stop-color-000000"></path><path d="M4.234 291.184c-.873 0-1.584.71-1.584 1.584a1.583 1.583 0 1 0 1.584-1.584zm0 .255c.735 0 1.326.594 1.326 1.329 0 .734-.591 1.326-1.326 1.326a1.327 1.327 0 1 1 0-2.654z" style="line-height:normal;font-variant-ligatures:normal;font-variant-position:normal;font-variant-caps:normal;font-variant-numeric:normal;font-variant-alternates:normal;font-variant-east-asian:normal;font-feature-settings:normal;font-variation-settings:normal;text-indent:0;text-align:start;text-decoration-line:none;text-decoration-style:solid;text-decoration-color:#000;text-transform:none;text-orientation:mixed;white-space:normal;shape-padding:0;shape-margin:0;inline-size:0;isolation:auto;mix-blend-mode:normal;solid-color:#000;solid-opacity:1" transform="matrix(3.91082 0 0 3.91067 -.42 -1137.272)" color="#000000" font-style="normal" font-variant="normal" font-weight="400" font-stretch="normal" font-size="medium" font-family="sans-serif" text-decoration="none" letter-spacing="normal" word-spacing="normal" writing-mode="lr-tb" direction="ltr" dominant-baseline="auto" baseline-shift="baseline" text-anchor="start" clip-rule="nonzero" display="inline" overflow="visible" visibility="visible" color-interpolation="sRGB" color-interpolation-filters="linearRGB" vector-effect="none" fill="#ff5722" fill-opacity="1" fill-rule="nonzero" stroke="none" stroke-width=".255706" stroke-linecap="butt" stroke-linejoin="miter" stroke-miterlimit="4" stroke-dasharray="none" stroke-dashoffset="0" stroke-opacity="1" paint-order="fill markers stroke" color-rendering="auto" image-rendering="auto" shape-rendering="auto" text-rendering="auto" enable-background="accumulate" stop-color="#ff5722" class="fill-000000 stop-color-000000"></path><path d="M4.104 291.912v.222h-.348v.76h.698v.25h-.698v.256h.348v.221h.256v-.221h.35v-.761h-.698v-.25h.698v-.255h-.349v-.222z" style="line-height:normal;font-variant-ligatures:normal;font-variant-position:normal;font-variant-caps:normal;font-variant-numeric:normal;font-variant-alternates:normal;font-variant-east-asian:normal;font-feature-settings:normal;font-variation-settings:normal;text-indent:0;text-align:start;text-decoration-line:none;text-decoration-style:solid;text-decoration-color:#000;text-transform:none;text-orientation:mixed;white-space:normal;shape-padding:0;shape-margin:0;inline-size:0;isolation:auto;mix-blend-mode:normal;solid-color:#000;solid-opacity:1" transform="matrix(3.91082 0 0 3.91067 -.42 -1137.272)" color="#000000" font-style="normal" font-variant="normal" font-weight="400" font-stretch="normal" font-size="medium" font-family="sans-serif" text-decoration="none" letter-spacing="normal" word-spacing="normal" writing-mode="lr-tb" direction="ltr" dominant-baseline="auto" baseline-shift="baseline" text-anchor="start" clip-rule="nonzero" display="inline" overflow="visible" visibility="visible" color-interpolation="sRGB" color-interpolation-filters="linearRGB" vector-effect="none" fill="#ff5722" fill-opacity="1" fill-rule="nonzero" stroke="none" stroke-width=".255706" stroke-linecap="square" stroke-linejoin="miter" stroke-miterlimit="4" stroke-dasharray="none" stroke-dashoffset="0" stroke-opacity="1" color-rendering="auto" image-rendering="auto" shape-rendering="auto" text-rendering="auto" enable-background="accumulate" stop-color="#ff5722" class="fill-000000 stop-color-000000"></path></g></svg>