<svg viewBox="0 0 48 60" xmlns="http://www.w3.org/2000/svg"><path d="M39 48a1 1 0 0 0-1 1v2a1 1 0 0 0 2 0v-2a1 1 0 0 0-1-1Zm1-11a1 1 0 0 0-2 0v8a1 1 0 0 0 2 0v-8Zm6-11H2c-1.103 0-2 .897-2 2v4c0 1.103.897 2 2 2v21c0 2.757 2.243 5 5 5h34c2.757 0 5-2.243 5-5V37a1 1 0 0 0-2 0v18c0 1.654-1.346 3-3 3H7c-1.654 0-3-1.346-3-3V33a1 1 0 0 0-1-1H2v-4h44v4H7a1 1 0 0 0 0 2h39c1.103 0 2-.897 2-2v-4c0-1.103-.897-2-2-2Zm-24-9.534V23a1 1 0 0 0 2 0v-7c0-.314-.15-.612-.401-.801A3.97 3.97 0 0 1 22 12c0-2.516 2.421-6.784 4-9.217 1.579 2.433 4 6.701 4 9.217 0 1.901-1.35 3.55-3.209 3.922a.999.999 0 1 0 .391 1.961A6.01 6.01 0 0 0 32 12C32 7.729 27.025.715 26.814.419c-.376-.526-1.252-.526-1.628 0C24.975.715 20 7.729 20 12c0 1.714.709 3.304 2 4.466ZM3 24h2a1 1 0 0 0 0-2H4v-2h5a1 1 0 0 0 0-2H4v-2h1a1 1 0 0 0 0-2H4v-2h1a1 1 0 0 0 0-2H4V8h5a1 1 0 0 0 0-2H4V2h12v21a1 1 0 0 0 2 0V1a1 1 0 0 0-1-1H3a1 1 0 0 0-1 1v22a1 1 0 0 0 1 1Zm36-11v10a1 1 0 0 0 2 0V13a1 1 0 0 0-2 0Zm6-1a1 1 0 0 0-1 1v10a1 1 0 0 0 2 0V13a1 1 0 0 0-1-1ZM35 24a1 1 0 0 0 1-1V9.287l4-6.4L43.196 8H39a1 1 0 0 0 0 2h6a1 1 0 0 0 .848-1.53l-5-8c-.366-.585-1.33-.585-1.696 0l-5 8A1.002 1.002 0 0 0 34 9v14a1 1 0 0 0 1 1Zm-5-4v3a1 1 0 0 1-2 0v-3a1 1 0 0 1 2 0Z" fill="#ff5722" fill-rule="evenodd" class="fill-000000"></path></svg>