<svg viewBox="0 0 24 24" xmlns="http://www.w3.org/2000/svg"><path d="m-20.846 81.424-.64.638-2.387 2.39.527 2.187-1.025 1.027a8.534 8.534 0 0 0-5.693-2.178c-4.731 0-8.577 3.846-8.577 8.576 0 4.731 3.846 8.577 8.577 8.577 4.73 0 8.576-3.846 8.576-8.577a8.532 8.532 0 0 0-2.178-5.691l1.025-1.027 2.19.527 3.027-3.027-2.787-.635zm-.574 1.988.375 1.635 1.635.371-1.352 1.352-1.619-.39-.389-1.618zm-8.644 3.076a7.54 7.54 0 0 1 4.99 1.883l-1.164 1.166a5.904 5.904 0 0 0-3.826-1.404 5.94 5.94 0 0 0-5.934 5.931 5.942 5.942 0 0 0 5.934 5.934 5.94 5.94 0 0 0 5.931-5.934 5.903 5.903 0 0 0-1.398-3.818l1.164-1.17a7.543 7.543 0 0 1 1.879 4.988 7.569 7.569 0 0 1-7.576 7.577 7.569 7.569 0 0 1-7.577-7.577 7.569 7.569 0 0 1 7.577-7.576zm0 2.645a4.89 4.89 0 0 1 3.107 1.125l-1.418 1.42a2.906 2.906 0 0 0-1.69-.545 2.94 2.94 0 0 0-2.933 2.931 2.942 2.942 0 0 0 2.934 2.934 2.94 2.94 0 0 0 2.931-2.934c0-.624-.2-1.2-.535-1.677l1.416-1.42a4.888 4.888 0 0 1 1.12 3.097 4.925 4.925 0 0 1-4.932 4.934 4.927 4.927 0 0 1-4.934-4.934 4.925 4.925 0 0 1 4.934-4.931zm0 3c.356 0 .683.102.968.267l-1.588 1.592.71.707 1.583-1.588a1.925 1.925 0 0 1-1.674 2.887 1.927 1.927 0 0 1-1.933-1.934c0-1.073.86-1.931 1.934-1.931z" style="line-height:normal;font-variant-ligatures:normal;font-variant-position:normal;font-variant-caps:normal;font-variant-numeric:normal;font-variant-alternates:normal;font-variant-east-asian:normal;font-feature-settings:normal;font-variation-settings:normal;text-indent:0;text-align:start;text-decoration-line:none;text-decoration-style:solid;text-decoration-color:#000;text-transform:none;text-orientation:mixed;white-space:normal;shape-padding:0;shape-margin:0;inline-size:0;isolation:auto;mix-blend-mode:normal;solid-color:#000;solid-opacity:1" transform="translate(40.032 -80.032)" color="#000000" font-style="normal" font-variant="normal" font-weight="400" font-stretch="normal" font-size="medium" font-family="sans-serif" text-decoration="none" letter-spacing="normal" word-spacing="normal" writing-mode="lr-tb" direction="ltr" dominant-baseline="auto" baseline-shift="baseline" text-anchor="start" clip-rule="nonzero" display="inline" overflow="visible" visibility="visible" opacity="1" color-interpolation="sRGB" color-interpolation-filters="linearRGB" vector-effect="none" fill="#ff5722" fill-opacity="1" fill-rule="nonzero" stroke="none" stroke-width=".999999" stroke-linecap="butt" stroke-linejoin="miter" stroke-miterlimit="4" stroke-dasharray="none" stroke-dashoffset="0" stroke-opacity="1" paint-order="stroke fill markers" color-rendering="auto" image-rendering="auto" shape-rendering="auto" text-rendering="auto" enable-background="accumulate" stop-color="#ff5722" stop-opacity="1" class="fill-000000 stop-color-000000"></path></svg>