<svg viewBox="0 0 500 500" xml:space="preserve" xmlns="http://www.w3.org/2000/svg"><g clip-rule="evenodd" fill-rule="evenodd"><path d="M328.349 299.354a4.474 4.474 0 0 1 5.753-2.615 4.479 4.479 0 0 1 2.624 5.753l-29.93 80.436a4.467 4.467 0 0 1-8.367-3.128l29.92-80.446zM347.004 314.822l26.319 26.318-26.319 26.319c-1.961 1.951-1.961 5.149 0 7.11 1.961 1.951 5.159 1.951 7.11 0l29.869-29.869a5.042 5.042 0 0 0 0-7.12l-29.869-29.869c-1.951-1.961-5.149-1.961-7.11 0-1.961 1.962-1.961 5.16 0 7.111zM288.141 314.822l-26.309 26.318 26.309 26.319c1.961 1.951 1.961 5.149 0 7.11-1.951 1.951-5.149 1.951-7.11 0L251.162 344.7a5.044 5.044 0 0 1 0-7.12l29.869-29.869c1.961-1.961 5.159-1.961 7.11 0 1.961 1.962 1.961 5.16 0 7.111z" fill="#ff5722" class="fill-130b7a"></path><path fill="none" stroke="#ff5722" stroke-linecap="round" stroke-linejoin="round" stroke-miterlimit="2.613" stroke-width="10" d="M201.027 248.777h229.641v184.566H201.027z" class="stroke-130b7a"></path><path d="M72.82 348.372h17.59c3.842 0 6.979 3.147 6.979 6.989s-3.138 6.979-6.979 6.979H72.82c-3.842 0-6.979-3.138-6.979-6.979s3.138-6.989 6.979-6.989zM131.091 344.188c6.165 0 11.163 4.998 11.163 11.173 0 6.165-4.998 11.163-11.163 11.163s-11.163-4.998-11.163-11.163c0-6.174 4.998-11.173 11.163-11.173z" fill="#ff5722" class="fill-130b7a"></path><path d="M160.155 380.796H43.435c-10.118 0-18.435-8.297-18.435-18.435V333.92h135.155v46.876zM239.153 108.865v139.76h-38.125v.152l-7.211-.253H178.58c-10.117 0-18.425 8.298-18.425 18.435v66.961H25V108.865h214.153z" fill="none" stroke="#ff5722" stroke-linecap="round" stroke-linejoin="round" stroke-miterlimit="2.613" stroke-width="10" class="stroke-130b7a"></path><path d="M104.601 93.99c-2.655 0-4.807-2.151-4.807-4.807s2.151-4.808 4.807-4.808h85.856c2.655 0 4.817 2.152 4.817 4.808s-2.162 4.807-4.817 4.807h-85.856zM81.832 81.842a8.144 8.144 0 0 1 8.146 8.146 8.136 8.136 0 0 1-8.146 8.136c-4.485 0-8.137-3.641-8.137-8.136 0-4.496 3.652-8.146 8.137-8.146z" fill="#ff5722" class="fill-130b7a"></path><path d="M43.435 66.495h177.294c10.128 0 18.425 8.307 18.425 18.424v23.946H25V84.919c0-10.137 8.297-18.424 18.435-18.424z" fill="none" stroke="#ff5722" stroke-linecap="round" stroke-linejoin="round" stroke-miterlimit="2.613" stroke-width="10" class="stroke-130b7a"></path><path d="M445.221 299.475v-17.589c0-3.842 3.147-6.98 6.989-6.98s6.979 3.139 6.979 6.98v17.589c0 3.842-3.138 6.979-6.979 6.979-3.842 0-6.989-3.138-6.989-6.979zM445.221 400.396v-17.589c0-3.842 3.147-6.98 6.989-6.98s6.979 3.148 6.979 6.98v17.589c0 3.842-3.138 6.99-6.979 6.99-3.842.001-6.989-3.148-6.989-6.99zM441.047 342.127c0-6.165 4.998-11.153 11.163-11.153s11.164 4.988 11.164 11.153-4.999 11.163-11.164 11.163-11.163-4.998-11.163-11.163zM185.006 368.627c0 2.645-2.162 4.808-4.817 4.808a4.82 4.82 0 0 1-4.807-4.808v-85.866a4.814 4.814 0 0 1 4.807-4.808 4.816 4.816 0 0 1 4.817 4.808v85.866zM172.848 391.386c0-4.495 3.66-8.136 8.146-8.136 4.506 0 8.146 3.641 8.146 8.136s-3.641 8.136-8.146 8.136c-4.486-.001-8.146-3.641-8.146-8.136z" fill="#ff5722" class="fill-130b7a"></path><path d="M430.668 248.777h25.908c10.117 0 18.425 8.348 18.425 18.435V415.07c0 10.097-8.328 18.435-18.425 18.435h-25.908V248.777zM160.155 415.07V267.212c0-10.137 8.308-18.435 18.425-18.435H201.027v184.728H178.58c-10.117 0-18.425-8.287-18.425-18.435zM63.85 200.384h19.611c1.197 0 2.173.985 2.173 2.182v19.602a2.186 2.186 0 0 1-2.173 2.183H63.85a2.191 2.191 0 0 1-2.172-2.183v-19.602a2.19 2.19 0 0 1 2.172-2.182zM63.85 261.62h19.611c1.197 0 2.173.976 2.173 2.173v19.611a2.177 2.177 0 0 1-2.173 2.172H63.85a2.182 2.182 0 0 1-2.172-2.172v-19.611c0-1.197.985-2.173 2.172-2.173zM117.806 261.62h19.601c1.207 0 2.183.986 2.183 2.173v19.611a2.179 2.179 0 0 1-2.183 2.172h-19.601a2.185 2.185 0 0 1-2.183-2.172v-19.611c0-1.187.985-2.173 2.183-2.173zM117.806 200.384h19.601c1.207 0 2.183.985 2.183 2.182v19.602a2.188 2.188 0 0 1-2.183 2.183h-19.601a2.194 2.194 0 0 1-2.183-2.183v-19.602c0-1.197.985-2.182 2.183-2.182zM171.751 200.384h19.611c1.196 0 2.172.985 2.172 2.182v19.602a2.186 2.186 0 0 1-2.172 2.183h-19.611a2.185 2.185 0 0 1-2.172-2.183v-19.602c0-1.197.976-2.182 2.172-2.182zM63.85 140.363h19.611c1.197 0 2.173.976 2.173 2.173v19.61a2.177 2.177 0 0 1-2.173 2.173H63.85a2.183 2.183 0 0 1-2.172-2.173v-19.61c0-1.197.985-2.173 2.172-2.173zM117.806 140.363h19.601a2.18 2.18 0 0 1 2.183 2.173v19.61a2.18 2.18 0 0 1-2.183 2.173h-19.601a2.186 2.186 0 0 1-2.183-2.173v-19.61c0-1.197.985-2.173 2.183-2.173zM171.751 140.363h19.611c1.196 0 2.172.976 2.172 2.173v19.61a2.177 2.177 0 0 1-2.172 2.173h-19.611a2.177 2.177 0 0 1-2.172-2.173v-19.61c0-1.197.976-2.173 2.172-2.173z" fill="none" stroke="#ff5722" stroke-linecap="round" stroke-linejoin="round" stroke-miterlimit="2.613" stroke-width="10" class="stroke-130b7a"></path></g></svg>