<svg viewBox="0 0 60 60" xmlns="http://www.w3.org/2000/svg"><g data-name="Layer 2"><path d="M0 0h60v60H0z" fill="none"></path><circle cx="9.33" cy="15.74" r="1" fill="#ff5722" class="fill-3d3d63"></circle><circle cx="16" cy="15.74" r="1" fill="#ff5722" class="fill-3d3d63"></circle><circle cx="12.67" cy="15.74" r="1" fill="#ff5722" class="fill-3d3d63"></circle><path d="m20 30.25 3-3a1 1 0 1 0-1.42-1.42l-3.72 3.73a1 1 0 0 0 0 1.41l3.72 3.73a1 1 0 0 0 1.42 0 1 1 0 0 0 0-1.41ZM34.32 34.68a1 1 0 0 0 1.41 0L39.46 31a1 1 0 0 0 0-1.41l-3.73-3.73a1 1 0 0 0-1.41 1.42l3 3-3 3a1 1 0 0 0 0 1.4ZM31 26.15a1 1 0 0 0-1.37.37L25.94 33a1 1 0 1 0 1.73 1l3.73-6.45a1 1 0 0 0-.4-1.4Z" fill="#ff5722" class="fill-3d3d63"></path><path d="M55.86 40a.29.29 0 0 1-.27-.19 10.43 10.43 0 0 0-1.67-2.89.29.29 0 0 1 0-.33 2.3 2.3 0 0 0-.84-3.14l-.75-.45V14.74a3 3 0 0 0-3-3H8a3 3 0 0 0-3 3v25.34a2.34 2.34 0 0 0 2.33 2.33H21l-1 3.7h-1.33a4.33 4.33 0 0 0-4.21 3.33H12a1 1 0 0 0 0 2h25.47a2.12 2.12 0 0 0 .07.71 2.25 2.25 0 0 0 1.07 1.4l2.11 1.22a2.3 2.3 0 0 0 3.14-.85.31.31 0 0 1 .31-.14 9.74 9.74 0 0 0 3.32 0 .3.3 0 0 1 .31.15 2.3 2.3 0 0 0 2 1.14 2.27 2.27 0 0 0 1.15-.3l2.11-1.22a2.29 2.29 0 0 0 1.07-1.4 2.26 2.26 0 0 0-.23-1.74.3.3 0 0 1 0-.34 10.52 10.52 0 0 0 1.67-2.88.28.28 0 0 1 .27-.19 2.31 2.31 0 0 0 2.3-2.3v-2.44A2.3 2.3 0 0 0 55.86 40ZM7 14.74a1 1 0 0 1 1-1h41.33a1 1 0 0 1 1 1v3H7Zm.33 25.67a.33.33 0 0 1-.33-.33V19.74h43.33V32a2.29 2.29 0 0 0-2.53 1 .29.29 0 0 1-.3.13 10.27 10.27 0 0 0-3.32 0 .28.28 0 0 1-.3-.13 2.29 2.29 0 0 0-3.14-.84l-2.11 1.22a2.24 2.24 0 0 0-1.07 1.39 2.32 2.32 0 0 0 .22 1.75.27.27 0 0 1 0 .33 10.43 10.43 0 0 0-1.67 2.89.29.29 0 0 1-.27.19 2.29 2.29 0 0 0-1.36.45ZM34 46.11H22l1-3.7h10.5v2.29a2.32 2.32 0 0 0 .5 1.41Zm-15.32 2h17.8a11 11 0 0 0 .78 1.33H16.57a2.33 2.33 0 0 1 2.1-1.33Zm37.48-3.41a.3.3 0 0 1-.3.3 2.31 2.31 0 0 0-2.15 1.48 8.46 8.46 0 0 1-1.34 2.33 2.31 2.31 0 0 0-.21 2.6.26.26 0 0 1 0 .22.29.29 0 0 1-.14.19L49.94 53a.3.3 0 0 1-.41-.12 2.31 2.31 0 0 0-2.37-1.11 7.92 7.92 0 0 1-2.66 0 2.31 2.31 0 0 0-2.37 1.12.31.31 0 0 1-.41.11l-2.11-1.22a.29.29 0 0 1-.14-.19.26.26 0 0 1 0-.22 2.33 2.33 0 0 0-.21-2.6 8.35 8.35 0 0 1-1.35-2.33A2.28 2.28 0 0 0 35.8 45a.3.3 0 0 1-.3-.3v-2.44a.29.29 0 0 1 .3-.3 2.3 2.3 0 0 0 2.14-1.48 8.21 8.21 0 0 1 1.35-2.33 2.33 2.33 0 0 0 .21-2.6.28.28 0 0 1 0-.23.26.26 0 0 1 .14-.18l2.11-1.22a.28.28 0 0 1 .15 0 .3.3 0 0 1 .25.14 2.32 2.32 0 0 0 2.37 1.12 7.92 7.92 0 0 1 2.66 0A2.33 2.33 0 0 0 49.53 34a.29.29 0 0 1 .4-.1l2.11 1.22a.26.26 0 0 1 .14.18.28.28 0 0 1 0 .23 2.3 2.3 0 0 0 .21 2.59 8.51 8.51 0 0 1 1.34 2.34A2.32 2.32 0 0 0 55.86 42a.29.29 0 0 1 .3.3Z" fill="#ff5722" class="fill-3d3d63"></path><path d="M45.83 38.94a4.54 4.54 0 1 0 4.54 4.54 4.54 4.54 0 0 0-4.54-4.54Zm0 7.08a2.54 2.54 0 1 1 2.54-2.54A2.54 2.54 0 0 1 45.83 46Z" fill="#ff5722" class="fill-3d3d63"></path></g></svg>